<svg viewBox="0 0 15 10" xmlns="http://www.w3.org/2000/svg">
    <path d="M0.9375 0C0.4125 0 0 0.4125 0 0.9375C0 1.4625 0.4125 1.875 0.9375 1.875C1.4625 1.875 1.875 1.4625 1.875 0.9375C1.875 0.4125 1.4625 0 0.9375 0ZM3.75 0V1.875H15V0H3.75ZM0.9375 3.75C0.4125 3.75 0 4.1625 0 4.6875C0 5.2125 0.4125 5.625 0.9375 5.625C1.4625 5.625 1.875 5.2125 1.875 4.6875C1.875 4.1625 1.4625 3.75 0.9375 3.75ZM3.75 3.75V5.625H15V3.75H3.75ZM0.9375 7.5C0.4125 7.5 0 7.9125 0 8.4375C0 8.9625 0.4125 9.375 0.9375 9.375C1.4625 9.375 1.875 8.9625 1.875 8.4375C1.875 7.9125 1.4625 7.5 0.9375 7.5ZM3.75 7.5V9.375H15V7.5H3.75Z" />
</svg>
